<svg width="20px" height="14px" viewBox="0 0 20 14" version="1.1" xmlns="http://www.w3.org/2000/svg" xmlns:xlink="http://www.w3.org/1999/xlink">
  <path d="M15.2897122,3.60534367 C14.1274062,1.44289942 11.9619219,0.108231198 9.58290653,0.108231198 C7.99924366,0.108231198 6.47136862,0.710370896 5.27838763,1.80331097 C4.19564549,2.79518843 3.45612857,4.12840287 3.16869117,5.59345991 C1.46641054,6.10914996 0.269252031,7.7514927 0.269252031,9.6443865 C0.269252031,11.7423632 1.75387181,13.5033894 3.67799081,13.8125177 L3.67799081,13.8623471 L14.9255516,13.8623471 C17.6240878,13.8623471 19.8174786,11.5592374 19.8174786,8.72577443 C19.8188625,6.02270032 17.8166119,3.80165379 15.2897122,3.60534367 L15.2897122,3.60534367 Z M14.9269362,12.6844112 L4.28494898,12.6844112 L4.24725579,12.6814535 C2.67335639,12.6609753 1.39245646,11.3013673 1.39245646,9.64584028 C1.39245646,8.17930439 2.38732741,6.92371667 3.75889151,6.65855262 L4.15515933,6.5809259 L4.21374013,6.161887 C4.39793305,4.81989977 5.03838301,3.58777301 6.01649613,2.68966421 C7.00434884,1.78426147 8.26992323,1.28614207 9.58288266,1.28614207 C11.3632949,1.28614207 12.9985919,2.1886122 14.0087884,3.68299545 C12.8158074,3.92620244 11.7330414,4.62797604 10.9977259,5.66670023 C10.8121484,5.92747788 10.8637826,6.29668729 11.1149352,6.49151857 C11.363271,6.68492114 11.7149229,6.63070526 11.9004765,6.36992761 C12.6204426,5.35316048 13.7241679,4.76859144 14.9268884,4.76859144 C17.0045015,4.76859144 18.6956103,6.54277677 18.6956103,8.72574936 C18.6956103,10.908722 17.0045493,12.6844112 14.9269362,12.6844112 L14.9269362,12.6844112 Z"></path>
</svg>