<svg width="20px" height="16px" viewBox="0 0 20 16" version="1.1" xmlns="http://www.w3.org/2000/svg" xmlns:xlink="http://www.w3.org/1999/xlink">
  <path d="M15.5635852,5.17277447 L17.5423346,6.00112322 L17.5423346,9.05895904 L17.6945457,9.2175787 L18.8171014,10.3896039 L18.8171014,15.2010707 L19.9777101,15.2010707 L19.9777101,9.9754191 L19.825499,9.81679944 L18.7029433,8.65358615 L18.7029433,5.38425646 L18.4080347,5.22563681 L15.5540772,4.00955079 L9.72249236,5.77199967 L9.72249236,14.9807635 L15.5540772,14.9807635 L15.5635852,5.17277447 Z M4.16677763,2.6436659 L3.05373469,2.91684436 L3.05373469,4.52947952 L4.16677763,4.32679901 L4.16677763,2.6436659 Z M14.6312938,5.50764347 L14.6312938,6.83828829 L13.6799752,7.01453318 L13.6799752,5.72794921 L14.6312938,5.49001973 L14.6312938,5.50764347 Z M11.2541153,9.86088107 L11.2541153,11.0064691 L10.5501396,11.0064691 L10.5501396,9.88731818 L11.2541153,9.88731818 L11.2541153,9.86088107 Z M12.8142783,9.76394675 L12.8142783,11.0064699 L11.9961439,11.0064699 L11.9961439,9.79919573 L12.8142783,9.74632241 L12.8142783,9.76394675 Z M14.631297,9.65820012 L14.631297,11.0064687 L13.6799784,11.0064687 L13.6799784,9.69344761 L14.631297,9.63176212 L14.631297,9.65820012 Z M11.2350961,8.08080622 L11.2350961,9.22639458 L10.5311203,9.28808006 L10.5311203,8.18655285 L11.2350961,8.08080622 L11.2350961,8.08080622 Z M12.7952591,7.84287703 L12.7952591,9.08540015 L11.9771247,9.16471013 L11.9771247,7.93100036 L12.7952591,7.80762924 L12.7952591,7.84287703 Z M14.6122778,7.56969753 L14.6122778,8.91796714 L13.6609592,9.00608928 L13.6609592,7.71950531 L14.6122778,7.56969753 L14.6122778,7.56969753 Z M11.2350993,6.31836357 L11.2350993,7.46395163 L10.5311235,7.59613493 L10.5311235,6.48579585 L11.2350993,6.31836357 L11.2350993,6.31836357 Z M12.7952623,5.93943818 L12.7952623,7.1819613 L11.9771279,7.33176908 L11.9771279,6.16855579 L12.7952623,5.96587528 L12.7952623,5.93943818 Z M6.65925447,2.02680909 L5.34643434,2.3440484 L5.34643434,4.10649728 L6.65925447,3.86856779 L6.65925447,2.02680909 Z M2.04536158,7.9310017 L1.09404295,7.98387502 L1.09404295,9.49077067 L2.04536158,9.49077067 L2.04536158,7.92219487 L2.04536158,7.9310017 Z M4.16680328,7.84287955 L3.05376033,7.9310017 L3.05376033,9.55245467 L4.16680328,9.55245467 L4.16680328,7.84287955 Z M6.65925447,7.69307177 L5.34643434,7.77238175 L5.34643434,9.53483063 L6.65925447,9.53483063 L6.65925447,7.69307177 Z M2.04536158,5.56051234 L1.09404295,5.7015078 L1.09404295,7.20840345 L2.04536158,7.1202813 L2.04536158,5.56051234 Z M4.16680328,5.23445966 L3.05376033,5.4018912 L3.05376033,7.04978275 L4.16680328,6.94403612 L4.16680328,5.23445966 Z M6.65925447,4.86434614 L5.34643434,5.06702665 L5.34643434,6.82947553 L6.65925447,6.70610455 L6.65925447,4.86434614 Z M2.04536158,3.14595663 L1.09404295,3.38388611 L1.09404295,4.89078176 L2.04536158,4.71453687 L2.04536158,3.14595663 Z M7.95305217,2.078272e-06 L11.7583235,1.83294891 L12.0532321,1.99156857 L12.0532321,4.74979179 L10.8640834,4.74979179 L10.8640834,2.64367094 L7.95304256,1.19846732 L7.95304256,14.9807804 L1.60256364e-05,14.9807804 L1.60256364e-05,2.361691 L7.95305217,2.078272e-06 Z"></path>
</svg>