<?xml version="1.0" encoding="UTF-8"?>
<svg width="13px" height="13px" viewBox="0 0 13 13" version="1.1" xmlns="http://www.w3.org/2000/svg" xmlns:xlink="http://www.w3.org/1999/xlink">
  <path d="M7.07541058,0.338928422 L7.07541058,5.36373896 L10.778244,2.03295481 C9.79643308,1.09231104 8.50819252,0.471099474 7.07541058,0.338928422 Z M12.6904904,6.50000883 C12.6904904,5.06876303 12.2002044,3.75453005 11.3846109,2.70617532 L7.27103287,6.40622845 L11.584867,10.0258059 C12.2803678,9.02511451 12.6904904,7.81115684 12.6904904,6.50002153 L12.6904904,6.50000883 Z M6.16973862,6.66467611 L6.20192915,6.62598558 L6.16973862,6.62598558 L6.16973862,0.326551493 C2.905186,0.499266343 0.309512079,3.19275014 0.309512079,6.50000985 C0.309512079,9.91901383 3.08099089,12.6904926 6.49999487,12.6904926 C8.28224108,12.6904926 9.88340115,11.9330869 11.0128536,10.7281124 L6.16972593,6.66468094 L6.16973862,6.66467611 Z" id="形状"></path>
</svg>