<?xml version="1.0" encoding="UTF-8"?>
<svg width="13px" height="12px" viewBox="0 0 13 12" version="1.1" xmlns="http://www.w3.org/2000/svg" xmlns:xlink="http://www.w3.org/1999/xlink">
  <path d="M10.9677779,10.5626783 L2.03118686,10.5626783 L2.03118684,10.5626783 C1.80610706,10.5626783 1.62364503,10.7451415 1.62364503,10.9702201 C1.62364503,11.1952999 1.80610818,11.377762 2.03118684,11.377762 L10.9677779,11.377762 L10.9677779,11.377762 C11.1928577,11.377762 11.3753197,11.1952988 11.3753197,10.9702201 C11.3753197,10.7451404 11.1928565,10.5626783 10.9677779,10.5626783 L10.9677779,10.5626783 Z M11.7787871,0 L1.21855323,0 L1.21855319,0 C0.544907197,0.0022455201 -1.14706352e-06,0.548977229 -1.14706352e-06,1.22263211 L-1.14706352e-06,7.7221145 L-1.14706352e-06,7.72211467 C-1.14706352e-06,8.39735289 0.547388306,8.94474678 1.22263096,8.94474678 L11.7787871,8.94474678 L11.778787,8.94474678 C12.452433,8.94250132 12.9973414,8.39576956 12.9973414,7.72211467 L12.9973414,1.21936562 L12.9973414,1.21937672 C12.9955582,0.546999619 12.4511764,0.00224460842 11.7787981,0 L11.7787871,0 Z M10.4395996,2.31565324 L7.18985837,5.56539443 L7.18985837,5.56539443 C7.11670522,5.64470091 7.01327632,5.68915431 6.90539421,5.68765764 L4.63864092,5.68765764 L3.12747576,7.19067836 L3.12747577,7.19067836 C2.97960703,7.34823375 2.73201172,7.35608708 2.57445632,7.20821789 C2.56842591,7.20255823 2.56257645,7.19670879 2.55691679,7.19067836 L2.5569168,7.19067837 C2.39981695,7.04363963 2.3916603,6.79708765 2.53869815,6.63998781 C2.5387937,6.63988572 2.5388893,6.63978368 2.53898496,6.6396817 L2.53898497,6.63968169 C2.54454697,6.63330308 2.55053818,6.62731181 2.55691684,6.62174982 L4.18382632,4.99728478 L4.18382636,4.99728474 C4.25728028,4.91840449 4.36051062,4.87403598 4.46829052,4.87502153 L6.7350438,4.87502153 L9.87148511,1.74754688 L9.87148514,1.74754685 C10.0306328,1.59158257 10.2860803,1.59416367 10.4420446,1.75331113 C10.5957844,1.91018986 10.5957844,2.16122739 10.4420445,2.31810612 L10.4395996,2.31565324 Z" id="形状"></path>
</svg>