<?xml version="1.0" encoding="UTF-8"?>
<svg width="13px" height="12px" viewBox="0 0 13 12" version="1.1" xmlns="http://www.w3.org/2000/svg" xmlns:xlink="http://www.w3.org/1999/xlink">
    <!-- Generator: Sketch 59 (86127) - https://sketch.com -->
    <title>形状</title>
    <desc>Created with Sketch.</desc>
    <g id="Page-1" stroke="none" stroke-width="1" fill="none" fill-rule="evenodd" opacity="0.699999988">
        <g id="运营-意见反馈-满意度调查" transform="translate(-31.000000, -594.000000)" fill="#FFFFFF" fill-rule="nonzero">
            <g id="编组-3">
                <g id="企业" transform="translate(31.000000, 594.000000)">
                    <path d="M12.4895368,10.4165175 L11.8024657,10.4165175 L11.8024657,3.12825711 C11.8024657,2.91459475 11.6670065,2.72886211 11.4589301,2.63529755 L8.03334995,0.967893264 C7.84063488,0.888293562 7.62557604,0.888293562 7.43286097,0.967893264 C7.21780212,1.04749297 7.08234298,1.24160452 7.08932541,2.29455496 L7.08932541,11.2488232 L6.4022543,11.2488232 L6.4022543,1.40778635 C6.4022543,0.328302676 6.4022543,0.167706786 6.14530088,0.081124654 C5.9232596,-0.005457478 5.68027104,-0.005457478 5.45822976,0.081124654 L1.53829356,2.00827533 C1.33021715,2.1018399 1.19475801,2.30153739 1.19475801,2.51519975 L1.19475801,10.4235 L0.507686894,10.4235 C0.335919116,10.4235 0.25073347,10.5100821 0.25073347,10.5896818 L0.25073347,11.5169485 C0.25073347,11.5965482 0.335919116,11.6831303 0.507686894,11.6831303 L12.4895368,11.6831303 C12.56774,11.6831303 12.7325253,11.5965482 12.7464902,11.5169485 L12.7464902,10.5966642 C12.768834,10.4961172 12.5831013,10.4165175 12.4895368,10.4165175 Z M4.44298444,9.2434693 C4.44298444,9.33703386 4.36478123,9.40965113 4.26423423,9.40965113 L3.29786592,9.40965113 C3.19731893,9.40965113 3.11911571,9.33563738 3.11911571,9.2434693 L3.11911571,8.46283363 C3.11911571,8.36926906 3.19731893,8.29665179 3.29786592,8.29665179 L4.28518152,8.29665179 C4.38572852,8.29665179 4.46393173,8.37066555 4.46393173,8.46283363 L4.44298444,9.2434693 Z M4.44298444,6.8889939 C4.44298444,6.98255847 4.36478123,7.05517574 4.26423423,7.05517574 L3.29786592,7.05517574 C3.19731893,7.05517574 3.11911571,6.98116198 3.11911571,6.8889939 L3.11911571,6.09578986 C3.11911571,6.00222529 3.19731893,5.92960802 3.29786592,5.92960802 L4.28518152,5.92960802 C4.38572852,5.92960802 4.46393173,6.00362178 4.46393173,6.09578986 L4.44298444,6.8889939 Z M4.44298444,4.54289742 C4.44298444,4.63646199 4.36478123,4.70907926 4.26423423,4.70907926 L3.29786592,4.70907926 C3.19731893,4.70907926 3.11911571,4.6350655 3.11911571,4.54289742 L3.11911571,3.74271095 C3.11911571,3.64914638 3.19731893,3.57652911 3.29786592,3.57652911 L4.28518152,3.57652911 C4.38572852,3.57652911 4.46393173,3.65054287 4.46393173,3.74271095 L4.44298444,4.54289742 Z M10.0861844,9.23648687 C10.0861844,9.33005143 10.0079812,9.4026687 9.90743416,9.4026687 L8.92011856,9.4026687 C8.81957157,9.4026687 8.74136835,9.32865495 8.74136835,9.23648687 L8.74136835,8.45026525 C8.74136835,8.35670069 8.81957157,8.28408342 8.92011856,8.28408342 L9.90743416,8.28408342 C10.0079812,8.28408342 10.0861844,8.35809718 10.0861844,8.45026525 L10.0861844,9.23648687 Z M10.0861844,6.88201147 C10.0861844,6.97557604 10.0079812,7.04819331 9.90743416,7.04819331 L8.92011856,7.04819331 C8.81957157,7.04819331 8.74136835,6.97417955 8.74136835,6.88201147 L8.74136835,6.09578986 C8.74136835,6.00222529 8.81957157,5.92960802 8.92011856,5.92960802 L9.90743416,5.92960802 C10.0079812,5.92960802 10.0861844,6.00362178 10.0861844,6.09578986 L10.0861844,6.88201147 Z M10.0861844,4.53591499 C10.0861844,4.62947956 10.0079812,4.70209683 9.90743416,4.70209683 L8.92011856,4.70209683 C8.81957157,4.70209683 8.74136835,4.62808307 8.74136835,4.53591499 L8.74136835,3.74271095 C8.74136835,3.64914638 8.81957157,3.57652911 8.92011856,3.57652911 L9.90743416,3.57652911 C10.0079812,3.57652911 10.0861844,3.65054287 10.0861844,3.74271095 L10.0861844,4.53591499 Z" id="形状"></path>
                </g>
            </g>
        </g>
    </g>
</svg>