<?xml version="1.0" encoding="UTF-8"?>
<svg width="13px" height="13px" viewBox="0 0 13 13" version="1.1" xmlns="http://www.w3.org/2000/svg" xmlns:xlink="http://www.w3.org/1999/xlink">
    <!-- Generator: Sketch 59 (86127) - https://sketch.com -->
    <title>形状</title>
    <desc>Created with Sketch.</desc>
    <g id="Page-1" stroke="none" stroke-width="1" fill="none" fill-rule="evenodd" opacity="0.699999988">
        <g id="运营-意见反馈-满意度调查" transform="translate(-30.000000, -155.000000)" fill="#FFFFFF" fill-rule="nonzero">
            <g id="编组-3">
                <g id="消-息1-01" transform="translate(30.000000, 155.000000)">
                    <path d="M11.5065806,0.476723282 L1.49527432,0.476723282 L1.49527431,0.476723282 C0.8423377,0.471439137 0.308744203,0.996465199 0.303459589,1.64940311 C0.303407934,1.65578586 0.303407969,1.66216892 0.303459694,1.66855169 L0.303459694,9.24854443 L0.303459701,9.24854424 C0.277138569,9.90624665 0.788974161,10.4607557 1.44667527,10.4870771 C1.4628666,10.4877251 1.47906953,10.4880428 1.4952739,10.48803 L3.54523225,10.48803 L3.54523225,12.2042781 L3.54523223,12.2042789 C3.53724656,12.5648984 3.82311376,12.8637124 4.18373327,12.871698 C4.19337215,12.8718581 4.20301455,12.8718581 4.21265343,12.871698 L4.21265347,12.871698 C4.3874381,12.8588797 4.55396601,12.7922593 4.68936241,12.6809878 L6.88232079,10.4880294 L11.4589086,10.4880294 L11.4589086,10.4880294 C12.1118452,10.4933207 12.6454453,9.96830052 12.6507364,9.31536261 C12.6507881,9.30897987 12.6507882,9.3025968 12.6507365,9.29621403 L12.6507365,1.66855027 L12.6507365,1.66854965 C12.6931086,1.0539102 12.2291941,0.52129828 11.6145559,0.478926209 C11.5786204,0.47644888 11.5425861,0.475713544 11.5065794,0.47672277 L11.5065806,0.476723282 Z M7.97879438,7.53233475 L2.83010212,7.53233475 L2.83010209,7.53233475 C2.48782361,7.53233475 2.2103527,7.25486383 2.2103527,6.91258535 C2.2103527,6.57030688 2.48782361,6.29283596 2.83010209,6.29283596 L7.97878132,6.29283596 L7.97878135,6.29283596 C8.32105983,6.29283596 8.59853074,6.57030688 8.59853074,6.91258535 C8.59853074,7.25486383 8.32105983,7.53233475 7.97878135,7.53233475 L7.97879438,7.53233475 Z M10.1717267,4.67194291 L2.83010212,4.67194291 L2.83010212,4.67194291 C2.49852975,4.68264111 2.22106405,4.4225206 2.21036577,4.09094823 C2.20994907,4.0780335 2.20994921,4.06510876 2.21036617,4.05219404 L2.21036617,4.05219402 C2.21547877,3.7120612 2.4899697,3.437565 2.83010253,3.43244463 L10.1717271,3.43244463 L10.1717271,3.43244463 C10.5118651,3.4375574 10.786364,3.71205598 10.7914765,4.05219402 L10.7914765,4.05219374 C10.8021821,4.38376612 10.5420672,4.66123833 10.2104948,4.67194313 C10.1975756,4.67236026 10.1846464,4.67236026 10.1717271,4.67194315 L10.1717267,4.67194291 Z" id="形状"></path>
                </g>
            </g>
        </g>
    </g>
</svg>