<?xml version="1.0" encoding="UTF-8"?>
<svg width="13px" height="13px" viewBox="0 0 13 13" version="1.1" xmlns="http://www.w3.org/2000/svg" xmlns:xlink="http://www.w3.org/1999/xlink">
    <!-- Generator: Sketch 59 (86127) - https://sketch.com -->
    <title>形状</title>
    <desc>Created with Sketch.</desc>
    <g id="Page-1" stroke="none" stroke-width="1" fill="none" fill-rule="evenodd" opacity="0.699999988">
        <g id="运营-意见反馈-满意度调查" transform="translate(-31.000000, -741.000000)" fill="#FFFFFF" fill-rule="nonzero">
            <g id="编组-3">
                <g id="设-置" transform="translate(31.000000, 741.000000)">
                    <path d="M11.6530417,6.50000832 C11.6530417,5.76824966 12.1124856,5.14820987 12.7562656,4.90103185 C12.6026521,4.2977499 12.3652495,3.7293801 12.0552296,3.20709433 C11.424018,3.48778802 10.6615366,3.37327617 10.1448368,2.85517986 C9.62813696,2.33848004 9.51362511,1.5746022 9.79431879,0.944787012 C9.27063654,0.63476712 8.70226674,0.3973645 8.09898479,0.24375104 C7.85041028,0.887531086 7.2303705,1.34697498 6.50000832,1.34697498 C5.76824966,1.34697498 5.14820987,0.887531086 4.90103185,0.24375104 C4.2977499,0.3973645 3.7293801,0.63476712 3.20709433,0.944787012 C3.48778802,1.57599868 3.37327617,2.33848004 2.85657635,2.85517986 C2.33987653,3.37187968 1.57599868,3.48639153 0.946183498,3.20709433 C0.63476712,3.7293801 0.3973645,4.2977499 0.24375104,4.90103185 C0.887531086,5.14960636 1.34697498,5.76964614 1.34697498,6.50000832 C1.34697498,7.23176698 0.887531086,7.85180677 0.24375104,8.09898479 C0.3973645,8.70226674 0.63476712,9.27063654 0.944787012,9.79292231 C1.57599868,9.51222862 2.33848004,9.62674047 2.85517986,10.1448368 C3.37187968,10.6615366 3.48639153,11.4254144 3.20569785,12.0552296 C3.7293801,12.3652495 4.2977499,12.6026521 4.90103185,12.7562656 C5.14960636,12.1124856 5.76964614,11.6530417 6.50000832,11.6530417 C7.23176698,11.6530417 7.85180677,12.1124856 8.09898479,12.7562656 C8.70226674,12.6026521 9.27063654,12.3652495 9.79292231,12.0552296 C9.51222862,11.424018 9.62674047,10.6615366 10.1434403,10.1448368 C10.6601401,9.62813696 11.424018,9.51362511 12.0538331,9.79292231 C12.3652495,9.27063654 12.6026521,8.70226674 12.7562656,8.09898479 C12.1124856,7.85180677 11.6530417,7.23176698 11.6530417,6.50000832 Z M6.50000832,8.2176861 C5.55179433,8.2176861 4.78233054,7.44822231 4.78233054,6.50000832 C4.78233054,5.55179433 5.55179433,4.78233054 6.50000832,4.78233054 C7.44822231,4.78233054 8.2176861,5.55179433 8.2176861,6.50000832 C8.2176861,7.44822231 7.44822231,8.2176861 6.50000832,8.2176861 Z" id="形状"></path>
                </g>
            </g>
        </g>
    </g>
</svg>